<?xml version="1.0" encoding="UTF-8"?>
<svg width="296px" height="201px" viewBox="0 0 296 201" version="1.1" xmlns="http://www.w3.org/2000/svg" xmlns:xlink="http://www.w3.org/1999/xlink">
    <title>两仪云-浅备份 4</title>
    <g id="logo-方案" stroke="none" stroke-width="1" fill="none" fill-rule="evenodd">
        <g id="编组-5备份" transform="translate(0.000000, -0.000000)">
            <path d="M196.227236,200.181873 C186.663586,200.181873 177.099038,196.540941 169.818093,189.259078 L90.8205493,110.251575 C85.5600929,104.991353 85.5600929,96.4611189 90.8205493,91.1999993 C96.0810057,85.9397778 104.610165,85.9397778 109.869723,91.1999993 L188.867267,170.207502 C192.925307,174.266953 199.529165,174.266953 203.587205,170.207502 L265.706927,108.079949 C270.110696,103.674726 270.110696,96.5069224 265.706927,92.1017002 L203.587205,29.9741467 C199.529165,25.9155943 192.925307,25.9155943 188.867267,29.9741467 L157.493107,61.3522614 C152.233549,66.6124829 143.70439,66.6124829 138.443933,61.3522614 C133.183477,56.0920399 133.183477,47.5609073 138.443933,42.3006858 L169.818093,10.9234692 C184.380882,-3.64115638 208.07359,-3.64115638 222.636379,10.9234692 L284.756101,73.0501246 C299.665517,87.9605219 299.665517,112.222025 284.756101,127.131524 L222.636379,189.259078 C215.355434,196.540941 205.790886,200.181873 196.227236,200.181873" id="Fill-3" fill="#2D3D48"></path>
            <path d="M99.7102536,200.181873 C90.1466038,200.181873 80.582056,196.540941 73.3011102,189.259078 L11.1813883,127.131524 C-3.72712944,112.222025 -3.72712944,87.9605219 11.1813883,73.0501246 L73.3011102,10.9234692 C87.8638998,-3.64115638 111.556607,-3.64115638 126.119397,10.9234692 L206.862643,91.6768949 C212.123998,96.9371164 212.123998,105.467351 206.862643,110.727572 C201.603085,115.988692 193.073926,115.988692 187.813469,110.727572 L107.070223,29.9741467 C103.012182,25.9155943 96.4083249,25.9155943 92.3502842,29.9741467 L30.2305623,92.1017002 C25.8267934,96.5069224 25.8267934,103.674726 30.2305623,108.079949 L92.3502842,170.207502 C96.4083249,174.266953 103.012182,174.266953 107.070223,170.207502 L138.444382,138.829387 C143.703941,133.569166 152.2331,133.569166 157.493556,138.829387 C162.754013,144.090507 162.754013,152.620741 157.493556,157.880963 L126.119397,189.259078 C118.838451,196.540941 109.273903,200.181873 99.7102536,200.181873" id="Fill-1" fill="#05C059"></path>
            <path d="M169.818093,189.259078 L90.8205493,110.251575 C85.5600929,104.991353 85.5600929,96.4611189 90.8205493,91.1999993 C96.0810057,85.9397778 104.610165,85.9397778 109.869723,91.1999993 L188.867267,170.207502 C192.925307,174.266953 199.529165,174.266953 203.587205,170.207502 L265.706927,108.079949 C270.110696,103.674726 270.110696,96.5069224 265.706927,92.1017002 L203.587205,29.9741467 C199.529165,25.9155943 192.925307,25.9155943 188.867267,29.9741467 L168.334422,50.50958 L149.439826,31.3037213 L169.818093,10.9234692 C184.380882,-3.64115638 208.07359,-3.64115638 222.636379,10.9234692 L284.756101,73.0501246 C299.665517,87.9605219 299.665517,112.222025 284.756101,127.131524 L222.636379,189.259078 C215.355434,196.540941 205.790886,200.181873 196.227236,200.181873 C186.663586,200.181873 177.099038,196.540941 169.818093,189.259078 Z" id="Fill-3" fill="#2D3D48"></path>
        </g>
    </g>
</svg>