<svg xmlns="http://www.w3.org/2000/svg" xmlns:xlink="http://www.w3.org/1999/xlink" fill="none" version="1.1" width="158.50265502929688" height="36" viewBox="0 0 158.50265502929688 36"><g><g><path d="M89.83210888671874,11.019561214599609C90.56170888671875,11.019561214599609,91.19040888671876,11.29811121459961,91.71820888671874,11.851861214599609C92.24600888671876,12.40561121459961,92.53510888671875,13.10032121459961,92.59230888671875,13.93598121459961L93.08310888671875,22.853001214599608L99.17490888671875,13.96618121459961L101.74340888671875,13.96618121459961L105.73060888671876,23.26250121459961L108.79000888671875,12.81841121459961C109.26400888671876,11.62030121459961,110.01040888671875,11.019561214599609,111.02900888671874,11.019561214599609L113.45970888671874,11.019561214599609L107.94280888671875,29.779901214599608L103.43450888671876,29.779901214599608L99.91120888671875,19.71850121459961L93.73870888671875,29.779901214599608L89.34130888671875,29.779901214599608L88.46720888671875,11.019561214599609L89.83210888671874,11.019561214599609ZM89.53530888671875,6.277111614599609L89.37060888671874,7.283931214599609C89.24280888671875,8.012191214599609,88.91000888671874,8.606221214599609,88.37210888671875,9.06935121459961C87.83420888671876,9.53585121459961,87.20210888671875,9.764061214599609,86.47590888671874,9.764061214599609L82.18610888671876,9.764061214599609L79.89331888671875,26.06780121459961C79.72858888671875,27.16190121459961,79.24446888671875,28.051201214599608,78.44433888671875,28.74260121459961C77.64419888671875,29.433901214599608,76.70621888671874,29.77960121459961,75.63040888671875,29.77960121459961L74.29236888671875,29.77960121459961L77.10628888671874,9.764061214599609L70.08660888671875,9.764061214599609L70.24798288671875,8.99888121459961C70.41271588671874,8.20013121459961,70.79933588671875,7.549061214599609,71.41120888671875,7.03893721459961C72.01970888671875,6.528816214599609,72.72570888671875,6.277111614599609,73.52584888671875,6.277111614599609L89.53530888671875,6.277111614599609ZM119.93410888671875,6.221401214599609L122.99340888671875,6.221401214599609L122.63700888671875,8.758581214599609C122.56640888671875,9.12104121459961,122.40170888671875,9.416371214599609,122.14620888671875,9.64458121459961C121.89070888671876,9.86944121459961,121.59150888671874,9.98354121459961,121.24520888671876,9.98354121459961L117.94050888671876,9.98354121459961L118.26660888671876,7.64101121459961C118.32370888671875,7.22151121459961,118.50860888671875,6.879189214599609,118.82800888671875,6.61741621459961C119.14740888671875,6.35228721459961,119.51380888671875,6.221401214599609,119.93410888671875,6.221401214599609ZM117.31180888671875,13.44700121459961C117.40250888671875,12.936881214599609,117.63450888671875,12.52073121459961,118.00770888671875,12.19183121459961C118.38090888671874,11.86629121459961,118.82130888671875,11.70185121459961,119.33230888671875,11.70185121459961L122.09240888671874,11.70185121459961L120.12570888671874,25.96180121459961C119.96100888671876,27.10950121459961,119.46000888671875,28.039201214599608,118.62290888671875,28.75730121459961C117.78580888671874,29.47550121459961,116.81090888671875,29.83460121459961,115.70140888671875,29.83460121459961L115.07270888671874,29.83460121459961L117.31180888671875,13.44700121459961ZM131.65170888671875,17.72830121459961L130.25990888671873,27.732701214599608C130.14890888671874,28.33350121459961,129.87660888671874,28.82680121459961,129.43960888671876,29.20610121459961C129.00250888671874,29.58860121459961,128.48480888671875,29.779901214599608,127.88300888671876,29.779901214599608L125.23380888671875,29.779901214599608L127.49970888671875,13.529891214599608C127.61070888671875,12.81841121459961,127.92330888671876,12.24117121459961,128.44110888671875,11.794811214599608C128.96220888671874,11.35181121459961,129.56730888671876,11.12695121459961,130.25990888671873,11.12695121459961L131.87020888671876,11.12695121459961L131.48700888671874,14.04673121459961C132.54600888671877,13.04662121459961,133.59150888671874,12.291511214599609,134.63040888671875,11.78474121459961C135.64900888671875,11.29140121459961,136.67780888671876,11.046411214599608,137.71660888671875,11.046411214599608C138.86300888671875,11.046411214599608,139.80100888671876,11.22764121459961,140.53050888671874,11.59345121459961C141.25670888671874,11.97268121459961,141.81140888671877,12.486161214599608,142.19470888671873,13.12046121459961C142.59470888671876,13.771531214599609,142.84020888671876,14.53000121459961,142.93090888671875,15.38244121459961C143.02170888671876,16.25500121459961,142.98810888671875,17.29200121459961,142.82330888671873,18.49350121459961L141.53910888671874,29.779901214599608L136.81560888671873,29.779901214599608L137.98890888671875,19.28220121459961C138.09650888671877,18.48340121459961,138.12680888671875,17.84580121459961,138.06960888671875,17.375901214599608C138.01580888671873,16.91950121459961,137.89810888671875,16.530201214599607,137.71660888671875,16.20132121459961C137.55190888671876,15.85564121459961,137.29640888671875,15.59052121459961,136.95010888671874,15.41264121459961C136.62400888671874,15.22806121459961,136.22050888671873,15.13745121459961,135.74990888671874,15.13745121459961C135.14810888671875,15.13745121459961,134.51270888671877,15.35559121459961,133.83690888671876,15.79188121459961C133.16460888671875,16.248301214599607,132.43500888671875,16.89270121459961,131.65170888671875,17.72830121459961ZM157.10750888671873,20.39940121459961C157.43690888671875,20.81890121459961,157.68230888671874,21.31560121459961,157.84370888671873,21.89960121459961C158.00840888671877,22.46340121459961,158.02530888671873,23.124501214599608,157.90090888671875,23.889701214599608C157.77310888671875,24.86970121459961,157.47050888671873,25.73560121459961,156.99990888671874,26.48060121459961C156.54260888671877,27.18870121459961,155.97780888671875,27.79620121459961,155.30550888671877,28.30630121459961C154.61290888671874,28.79630121459961,153.84640888671873,29.168801214599608,153.00930888671877,29.42390121459961C152.15530888671876,29.66210121459961,151.27120888671874,29.77960121459961,150.36010888671876,29.77960121459961C149.74150888671875,29.77960121459961,149.17000888671873,29.72260121459961,148.63880888671875,29.615201214599608C148.13110888671875,29.52450121459961,147.68400888671874,29.40710121459961,147.30070888671875,29.26280121459961C146.88050888671876,29.11510121459961,146.54430888671874,28.95400121459961,146.29220888671875,28.769401214599608C145.99970888671874,28.60500121459961,145.79120888671875,28.433801214599608,145.66350888671874,28.252601214599608L145.47190888671875,27.98080121459961L145.88200888671875,27.02760121459961C146.15430888671875,26.40680121459961,146.57460888671875,25.93360121459961,147.13940888671874,25.60800121459961C147.73780888671877,25.27910121459961,148.36650888671875,25.21870121459961,149.02200888671877,25.41670121459961L149.10610888671874,25.44360121459961C149.15990888671877,25.46370121459961,149.21370888671873,25.48050121459961,149.26750888671876,25.50060121459961C149.67090888671873,25.60800121459961,150.15160888671875,25.66170121459961,150.71650888671877,25.66170121459961C151.07950888671877,25.66170121459961,151.41910888671873,25.62820121459961,151.72500888671874,25.55100121459961C152.01750888671876,25.46370121459961,152.27300888671874,25.34620121459961,152.49150888671875,25.19860121459961C152.65630888671876,25.07440121459961,152.80080888671876,24.91000121459961,152.92860888671873,24.70860121459961C153.03950888671875,24.49050121459961,153.12020888671876,24.24550121459961,153.17400888671875,23.97030121459961C153.21100888671873,23.73530121459961,153.17400888671875,23.53730121459961,153.06640888671876,23.372901214599608C152.91850888671877,23.15140121459961,152.72690888671875,22.95340121459961,152.49150888671875,22.772201214599608C152.23600888671876,22.58760121459961,151.92000888671873,22.40970121459961,151.53680888671875,22.225101214599608C151.11650888671875,22.043901214599607,150.69630888671875,21.83580121459961,150.27940888671876,21.59750121459961C149.84240888671874,21.39950121459961,149.41200888671875,21.15450121459961,148.99520888671876,20.862601214599607C148.55810888671874,20.57390121459961,148.18490888671874,20.20810121459961,147.87560888671874,19.77180121459961C147.54950888671874,19.33890121459961,147.31080888671875,18.82540121459961,147.16630888671875,18.24480121459961C147.00150888671874,17.68100121459961,146.96460888671874,17.00980121459961,147.05530888671876,16.22780121459961C147.22010888671875,15.37539121459961,147.51930888671876,14.63706121459961,147.95630888671874,14.01954121459961C148.37660888671877,13.365111214599608,148.90440888671876,12.80801121459961,149.54310888671876,12.35829121459961C150.16170888671877,11.922001214599609,150.86100888671876,11.59311121459961,151.64430888671876,11.37497121459961C152.88490888671873,11.02929121459961,154.10190888671875,10.95882121459961,155.30550888671877,11.15682121459961C155.70550888671875,11.21052121459961,156.08880888671877,11.29107121459961,156.45190888671874,11.40182121459961C156.81830888671874,11.52599121459961,157.13430888671877,11.65688121459961,157.40670888671875,11.78441121459961L157.43690888671875,11.80790121459961C157.52770888671876,11.86495121459961,157.61850888671876,11.922001214599609,157.70920888671876,11.972351214599609C157.81680888671875,12.04954121459961,157.94460888671875,12.120011214599609,158.08910888671875,12.19385121459961L158.50260888671875,12.465691214599609L157.81680888671875,13.96585121459961C157.65540888671876,14.34508121459961,157.33610888671876,14.69747121459961,156.86200888671874,15.01629121459961C156.38800888671875,15.33176121459961,155.68870888671876,15.35525121459961,154.75750888671877,15.083411214599609C154.39440888671874,14.97267121459961,154.02790888671876,14.892121214599609,153.66820888671873,14.83842121459961C153.33870888671873,14.83842121459961,153.05630888671874,14.88205121459961,152.82100888671874,14.97267121459961C152.60250888671874,15.026361214599609,152.42770888671873,15.110261214599609,152.29990888671875,15.217661214599609C152.13520888671874,15.345191214599609,152.01750888671876,15.49285121459961,151.94350888671875,15.653941214599609C151.83600888671873,15.838531214599609,151.76200888671875,16.01640121459961,151.72500888671874,16.200981214599608C151.70820888671875,16.43590121459961,151.74520888671876,16.647301214599608,151.83600888671873,16.82860121459961C151.96370888671873,17.02660121459961,152.14530888671874,17.211201214599612,152.38400888671873,17.37560121459961C152.69330888671874,17.59040121459961,153.02940888671876,17.781701214599607,153.39250888671876,17.946101214599608C153.82960888671874,18.14410121459961,154.24980888671877,18.345501214599608,154.64990888671875,18.54350121459961C155.10380888671875,18.765001214599607,155.54080888671876,19.02010121459961,155.96100888671873,19.30870121459961C156.39810888671875,19.62080121459961,156.77800888671874,19.98330121459961,157.10750888671873,20.39940121459961Z" fill-rule="evenodd" fill="#FFFFFF" fill-opacity="1"/></g><g><g><path d="M35.28882820892334,36C33.56892820892334,36,31.84882820892334,35.3452,30.53952820892334,34.0357L16.33284420892334,19.8273C15.38682220892334,18.8813,15.38682220892334,17.3472,16.33284420892334,16.4011C17.27886820892334,15.4551,18.81271820892334,15.4551,19.75857820892334,16.4011L33.965228208923335,30.6095C34.69502820892334,31.3396,35.882628208923336,31.3396,36.61242820892334,30.6095L47.78382820892334,19.4367C48.57572820892334,18.6445,48.57572820892334,17.3555,47.78382820892334,16.5632L36.61242820892334,5.39044C35.882628208923336,4.66057,34.69502820892334,4.66057,33.965228208923335,5.39044L28.32302820892334,11.0334C27.377128208923338,11.9794,25.84332820892334,11.9794,24.89726820892334,11.0334C23.95123820892334,10.0874,23.95123820892334,8.55319,24.89726820892334,7.60721L30.53952820892334,1.96444C33.15842820892334,-0.654813,37.41922820892334,-0.654813,40.03812820892334,1.96444L51.20952820892334,13.1371C53.89082820892334,15.8185,53.89082820892334,20.1816,51.20952820892334,22.8629L40.03812820892334,34.0357C38.72872820892334,35.3452,37.008728208923344,36,35.28882820892334,36Z" fill-rule="evenodd" fill="#2D3D48" fill-opacity="1"/></g><g><path d="M17.9315,36C16.2116,36,14.4916,35.3452,13.1822,34.0357L2.01082,22.8629C-0.670274,20.1816,-0.670274,15.8185,2.01082,13.1371L13.1822,1.96444C15.8011,-0.654813,20.0619,-0.654813,22.6809,1.96444L37.2014,16.4868C38.1476,17.4328,38.1476,18.9669,37.2014,19.9129C36.2556,20.859,34.7217,20.859,33.7757,19.9129L19.2551,5.39044C18.5253,4.66057,17.3377,4.66057,16.6079,5.39044L5.43656,16.5632C4.6446,17.3555,4.6446,18.6445,5.43656,19.4367L16.6079,30.6095C17.3377,31.3396,18.5253,31.3396,19.2551,30.6095L24.8973,24.9666C25.8432,24.0206,27.3771,24.0206,28.3231,24.9666C29.2691,25.9127,29.2691,27.4468,28.3231,28.3928L22.6809,34.0357C21.3715,35.3452,19.6514,36,17.9315,36Z" fill-rule="evenodd" fill="#05C059" fill-opacity="1"/></g><g><path d="M30.53952820892334,34.0357L16.33284420892334,19.8273C15.38682220892334,18.8813,15.38682220892334,17.3472,16.33284420892334,16.4011C17.27886820892334,15.4551,18.81271820892334,15.4551,19.75857820892334,16.4011L33.965228208923335,30.6095C34.69502820892334,31.3396,35.882628208923336,31.3396,36.61242820892334,30.6095L47.78382820892334,19.4367C48.57572820892334,18.6445,48.57572820892334,17.3555,47.78382820892334,16.5632L36.61242820892334,5.39044C35.882628208923336,4.66057,34.69502820892334,4.66057,33.965228208923335,5.39044L30.27262820892334,9.08346L26.87472820892334,5.62955L30.53952820892334,1.96444C33.15842820892334,-0.654813,37.41922820892334,-0.654813,40.03812820892334,1.96444L51.20952820892334,13.1371C53.89082820892334,15.8185,53.89082820892334,20.1816,51.20952820892334,22.8629L40.03812820892334,34.0357C38.72872820892334,35.3452,37.008728208923344,36,35.28882820892334,36C33.56892820892334,36,31.84882820892334,35.3452,30.53952820892334,34.0357Z" fill-rule="evenodd" fill="#FFFFFF" fill-opacity="1"/></g></g></g></svg>